<svg width="368" height="368" viewBox="0 0 368 368" fill="none" xmlns="http://www.w3.org/2000/svg">
<path d="M216.51 14.43L224.7 16.2L222.93 24.4L214.74 22.63L216.51 14.44V14.43Z" fill="#F5F5FF"/>
<path d="M282.29 32.23L286.73 34.91L272.45 39.64L272.27 39.68L261.32 43.77L256.88 41.09L271.71 36.02L271.84 35.99L282.29 32.24V32.23ZM272.29 26.2L273.73 37.2V37.32L276.12 52.7L271.49 49.91L270.14 38.26L270.09 38.16L267.84 23.54L272.28 26.22L272.29 26.2Z" fill="#F5F5FF"/>
<path d="M293.56 46.03L296.53 48.67L293.87 51.96L281.86 65.48L278.75 62.72L293.56 46.05V46.03ZM291.4 65.91C290.35 64.97 289.62 63.99 289.21 62.96C288.8 61.93 288.64 60.9 288.72 59.87C288.8 58.84 289.06 57.87 289.49 56.93C289.92 56 290.44 55.18 291.07 54.48C291.85 53.6 292.68 52.89 293.56 52.33C294.44 51.77 295.36 51.41 296.33 51.26C297.3 51.1 298.29 51.2 299.32 51.54C300.35 51.88 301.39 52.52 302.46 53.47C303.66 54.53 304.5 55.75 304.99 57.13C305.48 58.51 305.59 59.91 305.33 61.35C305.07 62.79 304.39 64.12 303.3 65.35C302.18 66.61 300.92 67.45 299.52 67.87C298.12 68.29 296.71 68.33 295.3 67.99C293.89 67.65 292.59 66.96 291.41 65.91H291.4ZM292.54 62.6C293.39 63.35 294.26 63.85 295.18 64.09C296.09 64.33 296.97 64.32 297.82 64.06C298.67 63.8 299.43 63.29 300.11 62.52C301.13 61.37 301.59 60.12 301.49 58.78C301.39 57.43 300.67 56.16 299.33 54.98C298.48 54.23 297.58 53.7 296.62 53.38C295.66 53.06 294.72 53.02 293.82 53.23C292.92 53.44 292.11 53.96 291.38 54.77C290.7 55.54 290.29 56.36 290.16 57.26C290.02 58.15 290.16 59.06 290.56 59.99C290.96 60.92 291.63 61.79 292.55 62.61L292.54 62.6Z" fill="#F5F5FF"/>
<path d="M316.99 85.68L319.5 88.84C318.54 89.38 317.5 89.63 316.37 89.59C315.24 89.55 314.1 89.18 312.93 88.5C311.76 87.82 310.62 86.77 309.49 85.35C308.23 83.76 307.37 82.16 306.91 80.53C306.45 78.91 306.43 77.37 306.86 75.91C307.28 74.46 308.18 73.19 309.55 72.1C310.92 71.01 312.36 70.41 313.87 70.31C315.38 70.21 316.87 70.54 318.33 71.32C319.8 72.1 321.17 73.3 322.44 74.9C323.74 76.54 324.56 78.11 324.91 79.6C325.26 81.09 325.11 82.52 324.49 83.88C323.86 85.24 322.71 86.51 321.02 87.72L311.59 75.84C311.02 76.43 310.63 77.12 310.43 77.93C310.22 78.73 310.24 79.59 310.47 80.51C310.71 81.43 311.2 82.35 311.94 83.29C312.76 84.33 313.63 85.05 314.54 85.46C315.45 85.87 316.27 85.95 317 85.7L316.99 85.68ZM319.84 76.72C318.88 75.52 317.85 74.75 316.72 74.41C315.59 74.07 314.56 74.11 313.62 74.5L320.34 82.97C321.11 82.22 321.46 81.3 321.39 80.2C321.32 79.1 320.8 77.94 319.83 76.72H319.84Z" fill="#F5F5FF"/>
<path d="M333.79 91.63L335.89 95.22L322.15 103.23L320.05 99.64L333.79 91.63ZM336.01 102.23C335.41 101.2 334.69 100.42 333.85 99.9C333.01 99.38 332.17 99.05 331.33 98.92C330.49 98.79 329.75 98.79 329.11 98.92L330.61 98.01C330.84 97.9 331.21 97.78 331.72 97.66C332.23 97.54 332.81 97.46 333.47 97.42C334.13 97.38 334.81 97.44 335.53 97.59C336.25 97.74 336.93 98.03 337.58 98.47C338.23 98.91 338.79 99.53 339.26 100.34L336 102.24L336.01 102.23Z" fill="#F5F5FF"/>
<path d="M343.53 109.77L345.24 113.56L330.74 120.1L329.03 116.31L343.53 109.77ZM351.75 111.01L348.42 112.51L346.43 108.11L349.75 106.61L351.74 111.01H351.75Z" fill="#F5F5FF"/>
<path d="M346.12 140.83L345.09 141.17C344.79 141.21 344.35 141.24 343.76 141.24C343.17 141.24 342.52 141.16 341.8 141.01C341.09 140.86 340.37 140.6 339.65 140.24C338.93 139.88 338.27 139.36 337.68 138.69C337.09 138.02 336.63 137.15 336.32 136.09C336.07 135.25 335.92 134.4 335.89 133.53C335.86 132.66 335.97 131.83 336.26 131.03C336.54 130.23 337.04 129.52 337.74 128.88C338.44 128.25 339.41 127.74 340.66 127.37L349.89 124.6L351.09 128.58L342.54 131.15C341.56 131.44 340.84 131.83 340.37 132.32C339.9 132.81 339.65 133.39 339.61 134.07C339.57 134.75 339.67 135.51 339.93 136.35C340.26 137.45 340.79 138.33 341.51 138.98C342.23 139.63 343.01 140.1 343.86 140.4C344.7 140.69 345.47 140.83 346.16 140.83H346.12ZM339.93 146.79L338.73 142.81L353.96 138.24L355.16 142.22L339.93 146.79Z" fill="#F5F5FF"/>
<path d="M357.61 154.06L358.1 158.19L342.31 160.06L341.82 155.93L357.61 154.06ZM359.31 165.49C359.43 166.46 359.4 167.38 359.25 168.24C359.09 169.1 358.79 169.86 358.33 170.54C357.87 171.22 357.26 171.77 356.48 172.21C355.7 172.65 354.75 172.93 353.63 173.06L343.97 174.2L343.48 170.07L352.41 169.02C353.74 168.86 354.69 168.42 355.23 167.7C355.78 166.98 355.97 165.89 355.79 164.43C355.66 163.33 355.33 162.36 354.8 161.52C354.27 160.68 353.65 160.02 352.94 159.55C352.23 159.08 351.52 158.84 350.81 158.84L352.43 158.62C353.18 158.64 353.93 158.8 354.68 159.1C355.43 159.4 356.13 159.84 356.78 160.41C357.44 160.99 357.99 161.7 358.43 162.55C358.87 163.4 359.16 164.38 359.3 165.51L359.31 165.49Z" fill="#F5F5FF"/>
<path d="M349.47 217.18L344.52 216.02L340.88 231.57L337.42 230.76L342.03 211.07L362.19 215.79L357.58 235.45L354.12 234.64L357.76 219.12L352.74 217.94L349.76 230.65L346.49 229.88L349.47 217.17V217.18Z" fill="#F5F5FF"/>
<path d="M348.86 262.09L347.19 265.9L326.77 256.92L328.33 253.38C328.81 253.52 329.41 253.71 330.15 253.97C330.89 254.22 331.57 254.49 332.2 254.76L348.87 262.09H348.86ZM331.12 246.14C331.76 244.68 332.66 243.49 333.82 242.59C334.97 241.69 336.27 241.15 337.72 240.97C339.16 240.79 340.64 241.03 342.14 241.69C343.68 242.37 344.87 243.29 345.71 244.47C346.55 245.64 347.02 246.95 347.14 248.4C347.26 249.85 346.99 251.33 346.33 252.83C345.75 254.14 345.07 255.16 344.28 255.91C343.49 256.66 342.62 257.16 341.68 257.42C340.74 257.68 339.75 257.74 338.72 257.6C337.69 257.46 336.63 257.15 335.56 256.68C334.7 256.3 333.89 255.78 333.12 255.12C332.35 254.46 331.72 253.68 331.21 252.78C330.71 251.88 330.43 250.87 330.37 249.75C330.31 248.63 330.57 247.43 331.14 246.14H331.12ZM333.51 248.66C333 249.81 332.76 250.89 332.78 251.91C332.8 252.92 333.06 253.81 333.57 254.56C334.08 255.32 334.79 255.9 335.71 256.3C336.71 256.74 337.65 256.88 338.55 256.73C339.45 256.58 340.26 256.17 341 255.5C341.74 254.83 342.36 253.92 342.86 252.77C343.57 251.15 343.7 249.7 343.23 248.43C342.77 247.15 341.83 246.21 340.42 245.59C339.48 245.18 338.57 245.03 337.69 245.16C336.81 245.28 336 245.65 335.27 246.25C334.54 246.85 333.95 247.66 333.51 248.67V248.66Z" fill="#F5F5FF"/>
<path d="M311.65 280.92L313.97 277.47L327.16 286.35L324.84 289.8L311.65 280.92ZM320.2 281.92L319.28 281.34C319.06 281.14 318.76 280.81 318.38 280.35C318 279.89 317.65 279.34 317.32 278.69C316.99 278.04 316.73 277.32 316.55 276.53C316.37 275.74 316.36 274.91 316.5 274.03C316.64 273.15 317.02 272.25 317.64 271.33C318.13 270.6 318.7 269.95 319.34 269.37C319.99 268.79 320.71 268.36 321.51 268.07C322.31 267.78 323.17 267.71 324.11 267.85C325.04 267.99 326.05 268.42 327.13 269.15L335.12 274.53L332.8 277.98L325.39 272.99C324.54 272.42 323.78 272.11 323.11 272.05C322.44 272 321.83 272.17 321.27 272.57C320.72 272.97 320.2 273.53 319.71 274.26C319.07 275.22 318.72 276.18 318.67 277.15C318.62 278.12 318.75 279.02 319.06 279.86C319.37 280.7 319.75 281.38 320.19 281.91L320.2 281.92Z" fill="#F5F5FF"/>
<path d="M297.24 306.15C296.31 305.11 295.76 303.97 295.57 302.71C295.38 301.45 295.57 300.15 296.14 298.8C296.71 297.45 297.64 296.1 298.94 294.75C300.3 293.33 301.74 292.29 303.26 291.6C304.78 290.92 306.3 290.68 307.79 290.89C309.29 291.1 310.69 291.83 312 293.09C313.31 294.34 314.1 295.72 314.38 297.21C314.66 298.71 314.5 300.23 313.89 301.79C313.28 303.35 312.3 304.84 310.94 306.25C309.64 307.6 308.34 308.59 307.03 309.2C305.72 309.81 304.45 310.05 303.2 309.94C301.95 309.82 300.78 309.33 299.7 308.46L302.34 305.71C303.36 306.19 304.43 306.28 305.54 305.98C306.65 305.69 307.69 305.04 308.64 304.04C309.41 303.24 309.97 302.38 310.32 301.46C310.67 300.54 310.76 299.62 310.59 298.7C310.42 297.78 309.92 296.93 309.09 296.13C308.27 295.35 307.41 294.89 306.49 294.75C305.57 294.61 304.66 294.75 303.76 295.15C302.86 295.55 302.02 296.16 301.25 296.96C300.22 298.04 299.59 299.13 299.36 300.22C299.13 301.32 299.3 302.38 299.87 303.39L297.23 306.14L297.24 306.15Z" fill="#F5F5FF"/>
<path d="M283.37 329.27L280.01 331.73L270.61 318.9L273.73 316.61C274.31 317.22 274.8 317.77 275.22 318.26C275.63 318.75 276.02 319.25 276.39 319.75L283.37 329.28V329.27ZM279.78 311.75C281.05 310.82 282.42 310.25 283.87 310.05C285.32 309.85 286.72 310.02 288.07 310.58C289.42 311.14 290.58 312.08 291.55 313.41C292.55 314.77 293.1 316.18 293.21 317.63C293.32 319.08 293.05 320.47 292.4 321.81C291.75 323.14 290.76 324.3 289.41 325.29C287.93 326.37 286.52 326.95 285.18 327.02C283.84 327.09 282.59 326.77 281.44 326.05C280.28 325.34 279.24 324.35 278.32 323.1C277.76 322.34 277.32 321.48 276.99 320.52C276.66 319.56 276.5 318.57 276.51 317.54C276.52 316.51 276.79 315.5 277.3 314.5C277.81 313.5 278.64 312.59 279.77 311.76L279.78 311.75ZM280.59 315.13C279.57 315.87 278.82 316.69 278.33 317.57C277.84 318.46 277.63 319.35 277.69 320.26C277.75 321.17 278.07 322.03 278.67 322.84C279.31 323.72 280.06 324.31 280.91 324.63C281.76 324.94 282.67 324.99 283.64 324.78C284.61 324.57 285.59 324.08 286.61 323.34C288.04 322.29 288.87 321.11 289.12 319.78C289.36 318.45 289.03 317.17 288.12 315.93C287.52 315.1 286.8 314.52 285.97 314.19C285.14 313.86 284.27 313.77 283.33 313.92C282.4 314.07 281.48 314.48 280.59 315.13Z" fill="#F5F5FF"/>
<path d="M269.19 342.9L265.5 344.83L256.12 326.88L259.81 324.95L269.19 342.9ZM270.81 337.15L259.86 342.87L258.36 340.01L269.31 334.29L270.81 337.15Z" fill="#F5F5FF"/>
<path d="M250.25 347.01L246.38 348.53L240.57 333.73L244.44 332.21L250.25 347.01ZM248.6 355.15L247.27 351.75L251.77 349.98L253.1 353.38L248.6 355.15Z" fill="#F5F5FF"/>
<path d="M222.09 339.04C224.04 338.56 225.83 338.45 227.46 338.71C229.09 338.97 230.47 339.59 231.59 340.58C232.71 341.57 233.48 342.93 233.91 344.67C234.34 346.41 234.28 347.99 233.75 349.4C233.22 350.82 232.29 352.02 230.96 353C229.63 353.99 227.99 354.72 226.04 355.19C224.09 355.67 222.31 355.77 220.7 355.51C219.09 355.25 217.72 354.61 216.59 353.6C215.46 352.59 214.69 351.22 214.26 349.48C213.83 347.74 213.89 346.17 214.43 344.78C214.97 343.38 215.89 342.2 217.2 341.22C218.51 340.24 220.14 339.51 222.08 339.03L222.09 339.04ZM222.86 342.15C221.78 342.41 220.86 342.84 220.09 343.44C219.32 344.03 218.78 344.76 218.47 345.62C218.15 346.48 218.12 347.43 218.38 348.49C218.64 349.55 219.11 350.39 219.79 351.03C220.47 351.67 221.29 352.07 222.23 352.26C223.18 352.44 224.2 352.4 225.3 352.13C226.38 351.87 227.3 351.43 228.08 350.82C228.85 350.21 229.4 349.47 229.73 348.6C230.06 347.73 230.09 346.76 229.82 345.68C229.56 344.62 229.09 343.79 228.42 343.18C227.74 342.57 226.92 342.17 225.96 342C225 341.83 223.96 341.88 222.87 342.15H222.86Z" fill="#F5F5FF"/>
<path d="M193.42 360.02C192.44 360.08 191.53 360.02 190.68 359.82C189.83 359.62 189.08 359.27 188.43 358.78C187.78 358.29 187.25 357.64 186.86 356.85C186.47 356.05 186.23 355.09 186.16 353.96L185.52 344.25L189.67 343.97L190.26 352.94C190.35 354.28 190.74 355.24 191.43 355.83C192.12 356.41 193.2 356.66 194.67 356.56C195.78 356.49 196.76 356.21 197.63 355.72C198.5 355.23 199.18 354.65 199.69 353.96C200.2 353.27 200.48 352.58 200.51 351.87L200.65 353.5C200.59 354.25 200.4 354.99 200.06 355.72C199.72 356.45 199.25 357.13 198.64 357.75C198.03 358.38 197.29 358.89 196.42 359.29C195.55 359.69 194.55 359.93 193.42 360V360.02ZM204.92 358.91L200.77 359.18L199.72 343.31L203.87 343.04L204.92 358.91Z" fill="#F5F5FF"/>
<path d="M151.49 353.57L143.3 351.8L145.07 343.6L153.26 345.37L151.49 353.56V353.57Z" fill="#F5F5FF"/>
<path d="M85.7095 335.78L81.2695 333.1L95.5495 328.37L95.7295 328.33L106.68 324.24L111.12 326.92L96.2895 331.99L96.1595 332.02L85.7095 335.77V335.78ZM95.7095 341.81L94.2695 330.81V330.69L91.8795 315.31L96.5095 318.1L97.8595 329.75L97.9095 329.85L100.16 344.47L95.7195 341.79L95.7095 341.81Z" fill="#F5F5FF"/>
<path d="M76.5998 302.1C77.6498 303.04 78.3798 304.02 78.7898 305.05C79.1998 306.08 79.3598 307.11 79.2798 308.14C79.1998 309.17 78.9398 310.14 78.5098 311.08C78.0798 312.01 77.5598 312.83 76.9298 313.53C76.1498 314.41 75.3198 315.12 74.4398 315.68C73.5598 316.24 72.6398 316.6 71.6698 316.75C70.6998 316.91 69.7098 316.81 68.6798 316.47C67.6498 316.13 66.6098 315.49 65.5398 314.54C64.3398 313.48 63.4998 312.26 63.0098 310.88C62.5198 309.5 62.4098 308.1 62.6698 306.66C62.9298 305.22 63.6098 303.89 64.6998 302.66C65.8198 301.4 67.0798 300.56 68.4798 300.14C69.8798 299.72 71.2898 299.68 72.6998 300.02C74.1098 300.36 75.4098 301.05 76.5898 302.1H76.5998ZM75.4598 305.41C74.6098 304.66 73.7398 304.16 72.8198 303.92C71.9098 303.68 71.0298 303.69 70.1798 303.95C69.3298 304.21 68.5698 304.72 67.8898 305.49C66.8698 306.64 66.4098 307.89 66.5098 309.23C66.6098 310.58 67.3298 311.85 68.6698 313.03C69.5198 313.78 70.4198 314.31 71.3798 314.63C72.3398 314.95 73.2798 314.99 74.1798 314.78C75.0798 314.57 75.8898 314.05 76.6198 313.24C77.2998 312.47 77.7098 311.65 77.8398 310.75C77.9798 309.86 77.8398 308.95 77.4398 308.02C77.0398 307.09 76.3698 306.22 75.4498 305.4L75.4598 305.41ZM74.4398 321.97L71.4698 319.33L74.1298 316.04L86.1398 302.52L89.2498 305.28L74.4398 321.95V321.97Z" fill="#F5F5FF"/>
<path d="M51.0103 282.32L48.5003 279.16C49.4603 278.62 50.5003 278.37 51.6303 278.41C52.7603 278.45 53.9003 278.82 55.0703 279.5C56.2403 280.18 57.3803 281.23 58.5103 282.65C59.7703 284.24 60.6303 285.84 61.0903 287.47C61.5503 289.09 61.5703 290.63 61.1403 292.09C60.7203 293.54 59.8203 294.81 58.4503 295.9C57.0803 296.99 55.6403 297.59 54.1303 297.69C52.6203 297.79 51.1303 297.46 49.6703 296.68C48.2003 295.9 46.8303 294.7 45.5603 293.1C44.2603 291.46 43.4403 289.89 43.0903 288.4C42.7403 286.91 42.8903 285.48 43.5103 284.12C44.1403 282.76 45.2903 281.49 46.9803 280.28L56.4103 292.16C56.9803 291.57 57.3703 290.88 57.5703 290.07C57.7803 289.27 57.7603 288.41 57.5303 287.49C57.2903 286.57 56.8003 285.65 56.0603 284.71C55.2403 283.67 54.3703 282.95 53.4603 282.54C52.5503 282.13 51.7303 282.05 51.0003 282.3L51.0103 282.32ZM48.1603 291.28C49.1203 292.48 50.1503 293.25 51.2803 293.59C52.4103 293.93 53.4403 293.89 54.3803 293.5L47.6603 285.03C46.8903 285.78 46.5403 286.7 46.6103 287.8C46.6803 288.9 47.2003 290.06 48.1703 291.28H48.1603Z" fill="#F5F5FF"/>
<path d="M31.9902 265.78C32.5902 266.81 33.3102 267.59 34.1502 268.11C34.9902 268.63 35.8302 268.96 36.6702 269.09C37.5102 269.22 38.2502 269.22 38.8902 269.09L37.3902 270C37.1602 270.11 36.7902 270.23 36.2802 270.35C35.7702 270.47 35.1902 270.55 34.5302 270.59C33.8702 270.63 33.1902 270.57 32.4702 270.42C31.7502 270.27 31.0702 269.98 30.4202 269.54C29.7702 269.1 29.2102 268.48 28.7402 267.67L32.0002 265.77L31.9902 265.78ZM34.2002 276.37L32.1002 272.78L45.8402 264.77L47.9402 268.36L34.2002 276.37Z" fill="#F5F5FF"/>
<path d="M16.25 256.99L19.58 255.49L21.57 259.89L18.25 261.39L16.26 256.99H16.25ZM24.47 258.23L22.76 254.44L37.26 247.9L38.97 251.69L24.47 258.23Z" fill="#F5F5FF"/>
<path d="M28.0698 221.21L29.2698 225.19L14.0398 229.76L12.8398 225.78L28.0698 221.21ZM21.8798 227.18L22.9098 226.84C23.2098 226.8 23.6498 226.77 24.2398 226.77C24.8298 226.77 25.4798 226.85 26.1998 227C26.9098 227.15 27.6298 227.41 28.3498 227.77C29.0698 228.13 29.7298 228.65 30.3198 229.32C30.9098 229.99 31.3698 230.86 31.6798 231.92C31.9298 232.76 32.0798 233.61 32.1098 234.48C32.1398 235.35 32.0198 236.18 31.7398 236.98C31.4598 237.78 30.9598 238.49 30.2598 239.13C29.5598 239.76 28.5898 240.27 27.3398 240.64L18.1098 243.41L16.9098 239.43L25.4598 236.86C26.4398 236.57 27.1598 236.18 27.6298 235.69C28.0998 235.2 28.3498 234.62 28.3898 233.94C28.4298 233.26 28.3298 232.5 28.0698 231.66C27.7398 230.56 27.2098 229.68 26.4898 229.03C25.7698 228.38 24.9898 227.91 24.1398 227.61C23.2998 227.32 22.5298 227.18 21.8398 227.18H21.8798Z" fill="#F5F5FF"/>
<path d="M8.69026 202.51C8.57026 201.54 8.60026 200.62 8.75026 199.76C8.91026 198.9 9.21026 198.14 9.67026 197.46C10.1303 196.78 10.7403 196.23 11.5203 195.79C12.3003 195.35 13.2503 195.07 14.3703 194.94L24.0303 193.8L24.5203 197.93L15.5903 198.98C14.2603 199.14 13.3103 199.58 12.7703 200.3C12.2203 201.02 12.0303 202.11 12.2103 203.57C12.3403 204.67 12.6703 205.64 13.2003 206.48C13.7303 207.32 14.3503 207.98 15.0603 208.45C15.7703 208.92 16.4803 209.16 17.1903 209.16L15.5703 209.38C14.8203 209.36 14.0703 209.2 13.3203 208.9C12.5703 208.6 11.8703 208.16 11.2203 207.59C10.5603 207.01 10.0103 206.3 9.57026 205.45C9.13026 204.6 8.84026 203.62 8.70026 202.49L8.69026 202.51ZM10.3903 213.94L9.90026 209.81L25.6903 207.94L26.1803 212.07L10.3903 213.94Z" fill="#F5F5FF"/>
<path d="M18.5296 150.82L23.4796 151.98L27.1196 136.43L30.5796 137.24L25.9696 156.93L5.80957 152.21L10.4196 132.55L13.8796 133.36L10.2396 148.88L15.2596 150.06L18.2396 137.35L21.5096 138.12L18.5296 150.83V150.82Z" fill="#F5F5FF"/>
<path d="M19.1399 105.92L20.8099 102.11L41.2299 111.09L39.6699 114.63C39.1899 114.49 38.5899 114.3 37.8499 114.04C37.1099 113.79 36.4299 113.52 35.7999 113.25L19.1299 105.92H19.1399ZM36.8799 121.86C36.2399 123.32 35.3399 124.51 34.1799 125.41C33.0299 126.31 31.7299 126.85 30.2799 127.03C28.8399 127.21 27.3599 126.97 25.8599 126.31C24.3199 125.63 23.1299 124.71 22.2899 123.53C21.4499 122.36 20.9799 121.05 20.8599 119.6C20.7399 118.15 21.0099 116.67 21.6699 115.17C22.2499 113.86 22.9299 112.84 23.7199 112.09C24.5099 111.34 25.3799 110.84 26.3199 110.58C27.2599 110.32 28.2499 110.26 29.2799 110.4C30.3099 110.54 31.3699 110.85 32.4399 111.32C33.2999 111.7 34.1099 112.22 34.8799 112.88C35.6499 113.54 36.2799 114.32 36.7899 115.22C37.2899 116.12 37.5699 117.13 37.6299 118.25C37.6899 119.37 37.4299 120.57 36.8599 121.86H36.8799ZM34.4899 119.34C34.9999 118.19 35.2399 117.11 35.2199 116.09C35.1999 115.08 34.9399 114.19 34.4299 113.44C33.9199 112.68 33.2099 112.1 32.2899 111.7C31.2899 111.26 30.3499 111.12 29.4499 111.27C28.5499 111.42 27.7399 111.83 26.9999 112.5C26.2599 113.17 25.6399 114.08 25.1399 115.23C24.4299 116.85 24.2999 118.3 24.7699 119.57C25.2299 120.85 26.1699 121.79 27.5799 122.41C28.5199 122.82 29.4299 122.97 30.3099 122.84C31.1899 122.72 31.9999 122.35 32.7299 121.75C33.4599 121.15 34.0499 120.34 34.4899 119.33V119.34Z" fill="#F5F5FF"/>
<path d="M47.7999 86.08L48.7199 86.66C48.9399 86.86 49.2399 87.19 49.6199 87.65C49.9999 88.11 50.3499 88.66 50.6799 89.31C51.0099 89.96 51.2699 90.68 51.4499 91.47C51.6299 92.26 51.6399 93.09 51.4999 93.97C51.3599 94.85 50.9799 95.75 50.3599 96.67C49.8699 97.4 49.2999 98.05 48.6599 98.63C48.0099 99.21 47.2899 99.64 46.4899 99.93C45.6899 100.22 44.8299 100.29 43.8899 100.15C42.9599 100.01 41.9499 99.58 40.8699 98.85L32.8799 93.47L35.1999 90.02L42.6099 95.01C43.4599 95.58 44.2199 95.89 44.8899 95.95C45.5599 96 46.1699 95.83 46.7299 95.43C47.2799 95.03 47.7999 94.47 48.2899 93.74C48.9299 92.78 49.2799 91.82 49.3299 90.85C49.3799 89.88 49.2499 88.98 48.9399 88.14C48.6299 87.3 48.2499 86.62 47.8099 86.09L47.7999 86.08ZM56.3399 87.09L54.0199 90.54L40.8299 81.66L43.1499 78.21L56.3399 87.09Z" fill="#F5F5FF"/>
<path d="M70.7596 61.85C71.6896 62.89 72.2396 64.03 72.4296 65.29C72.6196 66.55 72.4296 67.85 71.8596 69.2C71.2896 70.55 70.3596 71.9 69.0596 73.25C67.6996 74.67 66.2596 75.71 64.7396 76.4C63.2196 77.08 61.6996 77.32 60.2096 77.11C58.7096 76.9 57.3096 76.17 55.9996 74.91C54.6896 73.66 53.8996 72.28 53.6196 70.79C53.3396 69.29 53.4996 67.77 54.1096 66.21C54.7196 64.65 55.6996 63.16 57.0596 61.75C58.3596 60.4 59.6596 59.41 60.9696 58.8C62.2796 58.19 63.5496 57.95 64.7996 58.06C66.0496 58.18 67.2196 58.67 68.2996 59.54L65.6596 62.29C64.6396 61.81 63.5696 61.72 62.4596 62.02C61.3496 62.31 60.3096 62.96 59.3596 63.96C58.5896 64.76 58.0296 65.62 57.6796 66.54C57.3296 67.46 57.2396 68.38 57.4096 69.3C57.5796 70.22 58.0796 71.07 58.9096 71.87C59.7296 72.65 60.5896 73.11 61.5096 73.25C62.4296 73.39 63.3396 73.25 64.2396 72.85C65.1396 72.45 65.9796 71.84 66.7496 71.04C67.7796 69.96 68.4096 68.87 68.6396 67.78C68.8696 66.68 68.6996 65.62 68.1296 64.61L70.7696 61.86L70.7596 61.85Z" fill="#F5F5FF"/>
<path d="M88.2205 56.25C86.9505 57.18 85.5805 57.75 84.1305 57.95C82.6805 58.15 81.2805 57.98 79.9305 57.42C78.5805 56.86 77.4205 55.92 76.4505 54.59C75.4505 53.23 74.9005 51.82 74.7905 50.37C74.6805 48.92 74.9505 47.53 75.6005 46.19C76.2505 44.86 77.2405 43.7 78.5905 42.71C80.0705 41.63 81.4805 41.05 82.8205 40.98C84.1605 40.91 85.4105 41.23 86.5605 41.95C87.7205 42.66 88.7605 43.65 89.6805 44.9C90.2405 45.66 90.6805 46.52 91.0105 47.48C91.3405 48.44 91.5005 49.43 91.4905 50.46C91.4805 51.49 91.2105 52.5 90.7005 53.5C90.1905 54.5 89.3605 55.41 88.2305 56.24L88.2205 56.25ZM87.4105 52.87C88.4305 52.13 89.1805 51.31 89.6705 50.42C90.1605 49.53 90.3705 48.64 90.3105 47.73C90.2505 46.82 89.9305 45.96 89.3305 45.15C88.6905 44.27 87.9405 43.68 87.0905 43.36C86.2405 43.05 85.3305 43 84.3605 43.21C83.3905 43.42 82.4105 43.91 81.3905 44.65C79.9605 45.7 79.1305 46.88 78.8805 48.21C78.6405 49.54 78.9705 50.82 79.8805 52.06C80.4805 52.89 81.2005 53.47 82.0305 53.8C82.8605 54.13 83.7405 54.22 84.6705 54.07C85.6005 53.92 86.5205 53.51 87.4105 52.86V52.87ZM84.6305 38.73L87.9905 36.27L97.3905 49.1L94.2705 51.39C93.6905 50.78 93.2005 50.23 92.7805 49.74C92.3705 49.25 91.9805 48.75 91.6105 48.25L84.6305 38.72V38.73Z" fill="#F5F5FF"/>
<path d="M97.1904 30.85L108.14 25.13L109.64 27.99L98.6904 33.71L97.1904 30.85ZM98.8004 25.1L102.49 23.17L111.87 41.12L108.18 43.05L98.8004 25.1Z" fill="#F5F5FF"/>
<path d="M119.4 12.85L120.73 16.25L116.23 18.02L114.9 14.62L119.4 12.85ZM117.75 20.99L121.62 19.47L127.43 34.27L123.56 35.79L117.75 20.99Z" fill="#F5F5FF"/>
<path d="M145.9 28.96C143.95 29.44 142.16 29.55 140.53 29.29C138.9 29.03 137.52 28.41 136.4 27.42C135.28 26.43 134.51 25.07 134.08 23.33C133.65 21.59 133.71 20.01 134.24 18.6C134.77 17.18 135.7 15.98 137.03 15C138.36 14.01 140 13.28 141.95 12.81C143.9 12.33 145.68 12.23 147.29 12.49C148.9 12.75 150.27 13.39 151.4 14.4C152.53 15.41 153.3 16.78 153.73 18.52C154.16 20.26 154.1 21.83 153.56 23.22C153.02 24.62 152.1 25.8 150.79 26.78C149.48 27.76 147.85 28.49 145.91 28.97L145.9 28.96ZM145.14 25.85C146.22 25.59 147.14 25.16 147.91 24.56C148.68 23.97 149.22 23.24 149.53 22.38C149.85 21.52 149.88 20.57 149.62 19.51C149.36 18.45 148.89 17.61 148.21 16.97C147.53 16.34 146.71 15.93 145.77 15.74C144.82 15.56 143.8 15.6 142.7 15.87C141.62 16.13 140.7 16.57 139.92 17.18C139.15 17.79 138.6 18.53 138.27 19.4C137.94 20.27 137.91 21.24 138.18 22.32C138.44 23.38 138.91 24.21 139.58 24.82C140.26 25.43 141.08 25.83 142.04 26C143 26.17 144.04 26.12 145.13 25.85H145.14Z" fill="#F5F5FF"/>
<path d="M163.08 9.09L167.23 8.82L168.28 24.69L164.13 24.96L163.08 9.09ZM174.58 7.98C175.56 7.92 176.47 7.98 177.32 8.18C178.17 8.38 178.92 8.73 179.57 9.22C180.22 9.71 180.75 10.36 181.14 11.15C181.53 11.95 181.77 12.91 181.84 14.04L182.48 23.75L178.33 24.03L177.74 15.06C177.65 13.72 177.26 12.76 176.57 12.17C175.88 11.59 174.8 11.34 173.33 11.44C172.22 11.51 171.24 11.79 170.37 12.28C169.5 12.77 168.82 13.35 168.31 14.04C167.8 14.73 167.52 15.42 167.49 16.13L167.35 14.5C167.41 13.75 167.6 13.01 167.94 12.28C168.28 11.55 168.75 10.87 169.36 10.25C169.97 9.62 170.71 9.11 171.58 8.71C172.45 8.31 173.45 8.07 174.58 8V7.98Z" fill="#F5F5FF"/>
</svg>
