<svg width="260" height="260" viewBox="0 0 260 260" fill="none" xmlns="http://www.w3.org/2000/svg">
<path d="M145 220C145 242.09 138.28 260 130 260C121.72 260 115 242.09 115 220C115 197.91 121.72 180 130 180C138.28 180 145 197.91 145 220ZM155.21 173.2C147.27 177.85 149.88 197.08 161.05 216.14C172.22 235.2 187.71 246.88 195.65 242.23C203.59 237.58 200.98 218.35 189.81 199.29C178.64 180.23 163.15 168.55 155.21 173.2ZM173.2 155.21C168.08 163.95 179.39 180.08 198.45 191.25C217.51 202.42 237.11 204.39 242.23 195.65C247.35 186.91 236.04 170.78 216.98 159.61C197.92 148.44 178.32 146.47 173.2 155.21ZM180 130C180 141.05 197.91 150 220 150C242.09 150 260 141.05 260 130C260 118.95 242.09 110 220 110C197.91 110 180 118.95 180 130ZM0 130C0 135.52 17.91 140 40 140C62.09 140 80 135.52 80 130C80 124.48 62.09 120 40 120C17.91 120 0 124.48 0 130ZM17.78 195.64C21.04 201.2 39.13 196.65 58.19 185.49C77.25 174.32 90.0599 160.77 86.8099 155.21C83.5499 149.65 65.46 154.2 46.4 165.36C27.34 176.53 14.53 190.08 17.78 195.64ZM64.36 242.23C70.71 245.95 84.92 233.52 96.08 214.46C107.25 195.4 111.15 176.93 104.79 173.21C98.44 169.49 84.2299 181.92 73.0699 200.98C61.8999 220.04 58 238.51 64.36 242.23ZM130 0C127.24 0 125 17.91 125 40C125 62.09 127.24 80 130 80C132.76 80 135 62.09 135 40C135 17.91 132.76 0 130 0ZM195.64 17.77C190.87 14.98 177.96 28.17 166.79 47.23C155.62 66.29 150.44 84.01 155.2 86.8C159.97 89.59 172.88 76.4 184.05 57.34C195.22 38.28 200.4 20.56 195.64 17.77ZM242.23 64.36C238.04 57.21 219.2 60.47 200.13 71.64C181.07 82.81 169.01 97.65 173.2 104.8C177.39 111.95 196.23 108.69 215.3 97.52C234.37 86.35 246.42 71.51 242.23 64.36ZM86.7999 104.79C89.1299 100.82 75.56 88.55 56.5 77.38C37.44 66.21 20.1 60.38 17.77 64.35C15.44 68.32 29.01 80.59 48.07 91.76C67.13 102.93 84.4699 108.76 86.7999 104.79ZM104.8 86.8C107.98 84.94 101.5 67.98 90.33 48.92C79.16 29.86 67.54 15.91 64.36 17.78C61.18 19.64 67.66 36.6 78.83 55.66C90 74.72 101.62 88.67 104.8 86.8Z" fill="url(#grad-automacao-ia)"/>
<defs>
<linearGradient id="grad-automacao-ia" x1="41.04" y1="219.12" x2="219.15" y2="41.01" gradientUnits="userSpaceOnUse">
<stop stop-color="#3264FF"/>
<stop offset="1" stop-color="#6496C8"/>
</linearGradient>
</defs>
</svg>
